<mxfile host="app.diagrams.net" modified="2022-06-29T12:02:03.600Z" agent="5.0 (Macintosh; Intel Mac OS X 10_15_7) AppleWebKit/537.36 (KHTML, like Gecko) Chrome/101.0.0.0 Safari/537.36" etag="316pzbOJF0cstajRt1YQ" version="19.0.3" type="github">
  <diagram id="xYl-4H49qDBM7t8s0P2L" name="Page-1">
    <mxGraphModel dx="1426" dy="736" grid="1" gridSize="10" guides="1" tooltips="1" connect="1" arrows="1" fold="1" page="1" pageScale="1" pageWidth="827" pageHeight="1169" math="0" shadow="0">
      <root>
        <mxCell id="0" />
        <mxCell id="1" parent="0" />
        <mxCell id="YZfA6s73Jz5mToOX0XRK-1" value="" style="rounded=0;whiteSpace=wrap;html=1;fillColor=#e1d5e7;strokeColor=#9673a6;" vertex="1" parent="1">
          <mxGeometry x="437" y="380" width="146" height="80" as="geometry" />
        </mxCell>
        <mxCell id="YZfA6s73Jz5mToOX0XRK-2" value="request" style="rounded=0;whiteSpace=wrap;html=1;fillColor=#fff2cc;strokeColor=#d6b656;" vertex="1" parent="1">
          <mxGeometry x="490" y="304" width="40" height="30" as="geometry" />
        </mxCell>
        <mxCell id="YZfA6s73Jz5mToOX0XRK-4" value="placement_id" style="text;html=1;strokeColor=none;fillColor=none;align=center;verticalAlign=middle;whiteSpace=wrap;rounded=0;" vertex="1" parent="1">
          <mxGeometry x="480" y="230" width="60" height="30" as="geometry" />
        </mxCell>
        <mxCell id="YZfA6s73Jz5mToOX0XRK-5" value="DB" style="sketch=0;shadow=0;dashed=0;html=1;labelPosition=center;verticalLabelPosition=bottom;verticalAlign=top;align=center;outlineConnect=0;shape=mxgraph.veeam.3d.datastore_volume;" vertex="1" parent="1">
          <mxGeometry x="600" y="270" width="54" height="34" as="geometry" />
        </mxCell>
        <mxCell id="YZfA6s73Jz5mToOX0XRK-6" value="" style="endArrow=classic;html=1;rounded=0;exitX=1;exitY=0.5;exitDx=0;exitDy=0;entryX=-0.056;entryY=0.647;entryDx=0;entryDy=0;entryPerimeter=0;" edge="1" parent="1" source="YZfA6s73Jz5mToOX0XRK-4" target="YZfA6s73Jz5mToOX0XRK-5">
          <mxGeometry width="50" height="50" relative="1" as="geometry">
            <mxPoint x="690" y="410" as="sourcePoint" />
            <mxPoint x="740" y="360" as="targetPoint" />
          </mxGeometry>
        </mxCell>
        <mxCell id="YZfA6s73Jz5mToOX0XRK-7" value="" style="endArrow=classic;html=1;rounded=0;entryX=1;entryY=0.5;entryDx=0;entryDy=0;" edge="1" parent="1" target="YZfA6s73Jz5mToOX0XRK-2">
          <mxGeometry width="50" height="50" relative="1" as="geometry">
            <mxPoint x="600" y="290" as="sourcePoint" />
            <mxPoint x="690" y="410" as="targetPoint" />
          </mxGeometry>
        </mxCell>
        <mxCell id="YZfA6s73Jz5mToOX0XRK-8" value="request" style="rounded=0;whiteSpace=wrap;html=1;fillColor=#fff2cc;strokeColor=#d6b656;" vertex="1" parent="1">
          <mxGeometry x="471" y="380" width="40" height="30" as="geometry" />
        </mxCell>
        <mxCell id="YZfA6s73Jz5mToOX0XRK-9" value="request" style="rounded=0;whiteSpace=wrap;html=1;fillColor=#fff2cc;strokeColor=#d6b656;" vertex="1" parent="1">
          <mxGeometry x="527" y="380" width="40" height="30" as="geometry" />
        </mxCell>
        <mxCell id="YZfA6s73Jz5mToOX0XRK-10" value="request" style="rounded=0;whiteSpace=wrap;html=1;fillColor=#fff2cc;strokeColor=#d6b656;" vertex="1" parent="1">
          <mxGeometry x="471" y="420" width="40" height="30" as="geometry" />
        </mxCell>
        <mxCell id="YZfA6s73Jz5mToOX0XRK-11" value="request" style="rounded=0;whiteSpace=wrap;html=1;fillColor=#fff2cc;strokeColor=#d6b656;" vertex="1" parent="1">
          <mxGeometry x="527" y="420" width="40" height="30" as="geometry" />
        </mxCell>
        <mxCell id="YZfA6s73Jz5mToOX0XRK-13" value="" style="shape=flexArrow;endArrow=classic;html=1;rounded=0;" edge="1" parent="1">
          <mxGeometry width="50" height="50" relative="1" as="geometry">
            <mxPoint x="510" y="340" as="sourcePoint" />
            <mxPoint x="510" y="375" as="targetPoint" />
          </mxGeometry>
        </mxCell>
        <mxCell id="YZfA6s73Jz5mToOX0XRK-14" value="请求组" style="text;html=1;strokeColor=none;fillColor=none;align=center;verticalAlign=middle;whiteSpace=wrap;rounded=0;" vertex="1" parent="1">
          <mxGeometry x="580" y="405" width="60" height="30" as="geometry" />
        </mxCell>
        <mxCell id="YZfA6s73Jz5mToOX0XRK-15" value="" style="rounded=0;whiteSpace=wrap;html=1;fillColor=#d5e8d4;strokeColor=#82b366;" vertex="1" parent="1">
          <mxGeometry x="405" y="510" width="210" height="130" as="geometry" />
        </mxCell>
        <mxCell id="YZfA6s73Jz5mToOX0XRK-16" value="" style="rounded=0;whiteSpace=wrap;html=1;fillColor=#ffcccc;strokeColor=#36393d;" vertex="1" parent="1">
          <mxGeometry x="414" y="520" width="90" height="50" as="geometry" />
        </mxCell>
        <mxCell id="YZfA6s73Jz5mToOX0XRK-21" value="goroutines" style="text;html=1;align=center;verticalAlign=middle;resizable=0;points=[];autosize=1;strokeColor=none;fillColor=none;" vertex="1" parent="1">
          <mxGeometry x="424" y="520" width="70" height="20" as="geometry" />
        </mxCell>
        <mxCell id="YZfA6s73Jz5mToOX0XRK-22" value="" style="rounded=0;whiteSpace=wrap;html=1;fillColor=#ffcccc;strokeColor=#36393d;" vertex="1" parent="1">
          <mxGeometry x="414" y="580" width="90" height="50" as="geometry" />
        </mxCell>
        <mxCell id="YZfA6s73Jz5mToOX0XRK-24" value="" style="rounded=0;whiteSpace=wrap;html=1;fillColor=#ffcccc;strokeColor=#36393d;" vertex="1" parent="1">
          <mxGeometry x="520" y="580" width="90" height="50" as="geometry" />
        </mxCell>
        <mxCell id="YZfA6s73Jz5mToOX0XRK-25" value="goroutines" style="text;html=1;align=center;verticalAlign=middle;resizable=0;points=[];autosize=1;strokeColor=none;fillColor=none;" vertex="1" parent="1">
          <mxGeometry x="530" y="580" width="70" height="20" as="geometry" />
        </mxCell>
        <mxCell id="YZfA6s73Jz5mToOX0XRK-26" value="goroutines" style="text;html=1;align=center;verticalAlign=middle;resizable=0;points=[];autosize=1;strokeColor=none;fillColor=none;" vertex="1" parent="1">
          <mxGeometry x="424" y="585" width="70" height="20" as="geometry" />
        </mxCell>
        <mxCell id="YZfA6s73Jz5mToOX0XRK-23" value="" style="rounded=0;whiteSpace=wrap;html=1;fillColor=#ffcccc;strokeColor=#36393d;" vertex="1" parent="1">
          <mxGeometry x="520" y="520" width="90" height="50" as="geometry" />
        </mxCell>
        <mxCell id="YZfA6s73Jz5mToOX0XRK-20" value="goroutines" style="text;html=1;align=center;verticalAlign=middle;resizable=0;points=[];autosize=1;strokeColor=none;fillColor=none;" vertex="1" parent="1">
          <mxGeometry x="530" y="520" width="70" height="20" as="geometry" />
        </mxCell>
        <mxCell id="YZfA6s73Jz5mToOX0XRK-27" value="request" style="rounded=0;whiteSpace=wrap;html=1;fillColor=#fff2cc;strokeColor=#d6b656;" vertex="1" parent="1">
          <mxGeometry x="440" y="540" width="40" height="30" as="geometry" />
        </mxCell>
        <mxCell id="YZfA6s73Jz5mToOX0XRK-28" value="request" style="rounded=0;whiteSpace=wrap;html=1;fillColor=#fff2cc;strokeColor=#d6b656;" vertex="1" parent="1">
          <mxGeometry x="540" y="540" width="40" height="30" as="geometry" />
        </mxCell>
        <mxCell id="YZfA6s73Jz5mToOX0XRK-29" value="request" style="rounded=0;whiteSpace=wrap;html=1;fillColor=#fff2cc;strokeColor=#d6b656;" vertex="1" parent="1">
          <mxGeometry x="543" y="600" width="40" height="30" as="geometry" />
        </mxCell>
        <mxCell id="YZfA6s73Jz5mToOX0XRK-30" value="request" style="rounded=0;whiteSpace=wrap;html=1;fillColor=#fff2cc;strokeColor=#d6b656;" vertex="1" parent="1">
          <mxGeometry x="440" y="600" width="40" height="30" as="geometry" />
        </mxCell>
        <mxCell id="YZfA6s73Jz5mToOX0XRK-31" value="" style="shape=flexArrow;endArrow=classic;html=1;rounded=0;" edge="1" parent="1">
          <mxGeometry width="50" height="50" relative="1" as="geometry">
            <mxPoint x="511" y="470" as="sourcePoint" />
            <mxPoint x="511" y="510" as="targetPoint" />
          </mxGeometry>
        </mxCell>
        <mxCell id="YZfA6s73Jz5mToOX0XRK-32" value="并发请求" style="text;html=1;align=center;verticalAlign=middle;resizable=0;points=[];autosize=1;strokeColor=none;fillColor=none;" vertex="1" parent="1">
          <mxGeometry x="527" y="480" width="60" height="20" as="geometry" />
        </mxCell>
        <mxCell id="YZfA6s73Jz5mToOX0XRK-36" value="R &amp;lt;- res" style="text;html=1;strokeColor=none;fillColor=none;align=center;verticalAlign=middle;whiteSpace=wrap;rounded=0;" vertex="1" parent="1">
          <mxGeometry x="615" y="530" width="100" height="30" as="geometry" />
        </mxCell>
        <mxCell id="YZfA6s73Jz5mToOX0XRK-38" value="" style="rounded=0;whiteSpace=wrap;html=1;fillColor=#d5e8d4;strokeColor=#82b366;" vertex="1" parent="1">
          <mxGeometry x="405" y="700" width="210" height="130" as="geometry" />
        </mxCell>
        <mxCell id="YZfA6s73Jz5mToOX0XRK-39" value="sticker" style="rounded=0;whiteSpace=wrap;html=1;fillColor=#ffff88;strokeColor=#36393d;" vertex="1" parent="1">
          <mxGeometry x="310" y="710" width="40" height="40" as="geometry" />
        </mxCell>
        <mxCell id="YZfA6s73Jz5mToOX0XRK-40" value="Text" style="text;html=1;strokeColor=none;fillColor=none;align=center;verticalAlign=middle;whiteSpace=wrap;rounded=0;" vertex="1" parent="1">
          <mxGeometry x="490" y="600" width="60" height="30" as="geometry" />
        </mxCell>
        <mxCell id="YZfA6s73Jz5mToOX0XRK-41" value="定时器&amp;nbsp; T" style="text;html=1;strokeColor=none;fillColor=none;align=center;verticalAlign=middle;whiteSpace=wrap;rounded=0;" vertex="1" parent="1">
          <mxGeometry x="300" y="680" width="60" height="30" as="geometry" />
        </mxCell>
        <mxCell id="YZfA6s73Jz5mToOX0XRK-42" value="select:" style="text;html=1;strokeColor=none;fillColor=none;align=center;verticalAlign=middle;whiteSpace=wrap;rounded=0;" vertex="1" parent="1">
          <mxGeometry x="424" y="710" width="60" height="30" as="geometry" />
        </mxCell>
        <mxCell id="YZfA6s73Jz5mToOX0XRK-45" value="返回收集器&amp;nbsp; &amp;nbsp;M" style="text;html=1;strokeColor=none;fillColor=none;align=center;verticalAlign=middle;whiteSpace=wrap;rounded=0;" vertex="1" parent="1">
          <mxGeometry x="280" y="760" width="90" height="30" as="geometry" />
        </mxCell>
        <mxCell id="YZfA6s73Jz5mToOX0XRK-46" value="M&amp;nbsp; &amp;lt;-&amp;nbsp; R" style="text;html=1;strokeColor=none;fillColor=none;align=center;verticalAlign=middle;whiteSpace=wrap;rounded=0;" vertex="1" parent="1">
          <mxGeometry x="471" y="730" width="60" height="30" as="geometry" />
        </mxCell>
        <mxCell id="YZfA6s73Jz5mToOX0XRK-47" value="&amp;lt;-T" style="text;html=1;align=center;verticalAlign=middle;resizable=0;points=[];autosize=1;strokeColor=none;fillColor=none;" vertex="1" parent="1">
          <mxGeometry x="476" y="760" width="30" height="20" as="geometry" />
        </mxCell>
        <mxCell id="YZfA6s73Jz5mToOX0XRK-49" value="" style="shape=flexArrow;endArrow=classic;html=1;rounded=0;" edge="1" parent="1">
          <mxGeometry width="50" height="50" relative="1" as="geometry">
            <mxPoint x="504" y="650" as="sourcePoint" />
            <mxPoint x="504" y="690" as="targetPoint" />
          </mxGeometry>
        </mxCell>
        <mxCell id="YZfA6s73Jz5mToOX0XRK-50" value="" style="shape=flexArrow;endArrow=classic;html=1;rounded=0;" edge="1" parent="1">
          <mxGeometry width="50" height="50" relative="1" as="geometry">
            <mxPoint x="503" y="850" as="sourcePoint" />
            <mxPoint x="503" y="890" as="targetPoint" />
          </mxGeometry>
        </mxCell>
        <mxCell id="YZfA6s73Jz5mToOX0XRK-52" value="over" style="rounded=0;whiteSpace=wrap;html=1;fillColor=#dae8fc;strokeColor=#6c8ebf;gradientColor=#7ea6e0;" vertex="1" parent="1">
          <mxGeometry x="630" y="740" width="40" height="40" as="geometry" />
        </mxCell>
        <mxCell id="YZfA6s73Jz5mToOX0XRK-53" value="结束通道" style="text;html=1;align=center;verticalAlign=middle;resizable=0;points=[];autosize=1;strokeColor=none;fillColor=none;" vertex="1" parent="1">
          <mxGeometry x="620" y="715" width="60" height="20" as="geometry" />
        </mxCell>
        <mxCell id="YZfA6s73Jz5mToOX0XRK-54" value="over &amp;lt;- true" style="text;html=1;align=center;verticalAlign=middle;resizable=0;points=[];autosize=1;strokeColor=none;fillColor=none;" vertex="1" parent="1">
          <mxGeometry x="490" y="780" width="80" height="20" as="geometry" />
        </mxCell>
        <mxCell id="YZfA6s73Jz5mToOX0XRK-55" value="&amp;lt;-over" style="text;html=1;align=center;verticalAlign=middle;resizable=0;points=[];autosize=1;strokeColor=none;fillColor=none;" vertex="1" parent="1">
          <mxGeometry x="432" y="800" width="50" height="20" as="geometry" />
        </mxCell>
        <mxCell id="YZfA6s73Jz5mToOX0XRK-56" value="R" style="rounded=0;whiteSpace=wrap;html=1;fillColor=#d5e8d4;strokeColor=#82b366;gradientColor=#97d077;" vertex="1" parent="1">
          <mxGeometry x="640" y="590" width="40" height="40" as="geometry" />
        </mxCell>
        <mxCell id="YZfA6s73Jz5mToOX0XRK-57" value="请求返回传递通道" style="text;html=1;align=center;verticalAlign=middle;resizable=0;points=[];autosize=1;strokeColor=none;fillColor=none;" vertex="1" parent="1">
          <mxGeometry x="620" y="565" width="110" height="20" as="geometry" />
        </mxCell>
        <mxCell id="YZfA6s73Jz5mToOX0XRK-58" value="R" style="rounded=0;whiteSpace=wrap;html=1;fillColor=#d5e8d4;strokeColor=#82b366;gradientColor=#97d077;" vertex="1" parent="1">
          <mxGeometry x="494" y="555" width="40" height="30" as="geometry" />
        </mxCell>
        <mxCell id="YZfA6s73Jz5mToOX0XRK-59" value="" style="rounded=0;whiteSpace=wrap;html=1;fillColor=#e6d0de;gradientColor=#d5739d;strokeColor=#996185;" vertex="1" parent="1">
          <mxGeometry x="295" y="790" width="60" height="25" as="geometry" />
        </mxCell>
        <mxCell id="YZfA6s73Jz5mToOX0XRK-60" value="bid请求逻辑图示" style="text;html=1;align=center;verticalAlign=middle;resizable=0;points=[];autosize=1;strokeColor=none;fillColor=none;" vertex="1" parent="1">
          <mxGeometry x="460" y="140" width="100" height="20" as="geometry" />
        </mxCell>
        <mxCell id="YZfA6s73Jz5mToOX0XRK-61" value="" style="rounded=0;whiteSpace=wrap;html=1;" vertex="1" parent="1">
          <mxGeometry x="675" y="140" width="40" height="40" as="geometry" />
        </mxCell>
        <mxCell id="YZfA6s73Jz5mToOX0XRK-62" value="channel（通道）" style="text;html=1;align=center;verticalAlign=middle;resizable=0;points=[];autosize=1;strokeColor=none;fillColor=none;" vertex="1" parent="1">
          <mxGeometry x="710" y="150" width="110" height="20" as="geometry" />
        </mxCell>
        <mxCell id="YZfA6s73Jz5mToOX0XRK-63" value="response" style="rounded=0;whiteSpace=wrap;html=1;fillColor=#f5f5f5;gradientColor=#b3b3b3;strokeColor=#666666;" vertex="1" parent="1">
          <mxGeometry x="474" y="900" width="60" height="25" as="geometry" />
        </mxCell>
        <mxCell id="YZfA6s73Jz5mToOX0XRK-64" value="" style="rounded=0;whiteSpace=wrap;html=1;" vertex="1" parent="1">
          <mxGeometry x="665" y="205" width="60" height="25" as="geometry" />
        </mxCell>
        <mxCell id="YZfA6s73Jz5mToOX0XRK-65" value="数据数组" style="text;html=1;align=center;verticalAlign=middle;resizable=0;points=[];autosize=1;strokeColor=none;fillColor=none;" vertex="1" parent="1">
          <mxGeometry x="730" y="210" width="60" height="20" as="geometry" />
        </mxCell>
        <mxCell id="YZfA6s73Jz5mToOX0XRK-66" value="select&amp;nbsp; &amp;nbsp;多路复用" style="text;html=1;align=center;verticalAlign=middle;resizable=0;points=[];autosize=1;strokeColor=none;fillColor=none;" vertex="1" parent="1">
          <mxGeometry x="675" y="250" width="100" height="20" as="geometry" />
        </mxCell>
      </root>
    </mxGraphModel>
  </diagram>
</mxfile>
